<svg width="508" height="429" viewBox="0 0 508 429" fill="none" xmlns="http://www.w3.org/2000/svg">
<rect width="508" height="429" fill="white"/>
<path d="M286 76C336.336 76 377.621 114.74 381.672 164.031C424.889 170.618 458 207.942 458 253C458 301.717 419.293 341.391 370.955 342.95L371 343H281L249.5 299L264.5 277L253.729 262.437C253.689 262.422 253.65 262.407 253.609 262.393L181 165L180.993 165.006C164.551 165.274 151.274 178.551 151.006 194.993L151 195L153.666 198.653L172.16 223.998L259 343H131C88.4741 343 54 308.526 54 266C54 231.323 76.923 202 108.442 192.357C107.498 188.055 107 183.586 107 179C107 144.758 134.758 117 169 117C180.953 117 192.116 120.383 201.584 126.243C217.84 96.3159 249.548 76 286 76ZM372 212C367.408 212 362.977 212.69 358.804 213.968L359 214L327 257L297 302.25H370.5L370.223 301.961C370.812 301.984 371.405 302 372 302C396.853 302 417 281.853 417 257C417 232.147 396.853 212 372 212ZM128 233.006C109.729 233.273 95 248.165 95 266.5C95 284.835 109.729 299.726 128 299.993V300H180.5L128 233V233.006ZM286 125C259.669 125 237.508 142.854 230.963 167.116L231 167L290 244.5L340.841 167L341.083 167.293C334.598 142.941 312.395 125 286 125Z" fill="black"/>
</svg>
